<svg width="279" height="75" viewBox="0 0 279 75" fill="none" xmlns="http://www.w3.org/2000/svg">
<g clip-path="url(#clip0_42_2)">
<path d="M17.2577 35H279L262.461 75H0L17.2577 35Z" fill="#285CA7"/>
<path d="M43.2539 56.6396H37.7754L37.7461 53.6221H42.3457C43.1562 53.6221 43.8203 53.5195 44.3379 53.3145C44.8555 53.0996 45.2412 52.792 45.4951 52.3916C45.7588 51.9814 45.8906 51.4834 45.8906 50.8975C45.8906 50.2334 45.7637 49.6963 45.5098 49.2861C45.2656 48.876 44.8799 48.5781 44.3525 48.3926C43.835 48.207 43.166 48.1143 42.3457 48.1143H39.2988V66H34.9043V44.6719H42.3457C43.5859 44.6719 44.6943 44.7891 45.6709 45.0234C46.6572 45.2578 47.4922 45.6143 48.1758 46.0928C48.8594 46.5713 49.3818 47.1768 49.7432 47.9092C50.1045 48.6318 50.2852 49.4912 50.2852 50.4873C50.2852 51.3662 50.085 52.1768 49.6846 52.9189C49.2939 53.6611 48.6738 54.2666 47.8242 54.7354C46.9844 55.2041 45.8857 55.4629 44.5283 55.5117L43.2539 56.6396ZM43.0635 66H36.5742L38.2881 62.5723H43.0635C43.835 62.5723 44.4648 62.4502 44.9531 62.2061C45.4414 61.9521 45.8027 61.6104 46.0371 61.1807C46.2715 60.751 46.3887 60.2578 46.3887 59.7012C46.3887 59.0762 46.2812 58.5342 46.0664 58.0752C45.8613 57.6162 45.5293 57.2646 45.0703 57.0205C44.6113 56.7666 44.0059 56.6396 43.2539 56.6396H39.0205L39.0498 53.6221H44.3232L45.334 54.8086C46.6328 54.7891 47.6777 55.0186 48.4688 55.4971C49.2695 55.9658 49.8506 56.5762 50.2119 57.3281C50.583 58.0801 50.7686 58.8857 50.7686 59.7451C50.7686 61.1123 50.4707 62.2646 49.875 63.2021C49.2793 64.1299 48.4053 64.8281 47.2529 65.2969C46.1104 65.7656 44.7139 66 43.0635 66ZM68.376 62.5723V66H57.0234V62.5723H68.376ZM58.459 44.6719V66H54.0645V44.6719H58.459ZM66.8965 53.3584V56.6982H57.0234V53.3584H66.8965ZM68.3613 44.6719V48.1143H57.0234V44.6719H68.3613ZM80.7686 44.6719V66H76.3887V44.6719H80.7686ZM87.3311 44.6719V48.1143H69.9287V44.6719H87.3311ZM99.6064 44.6719V66H95.2266V44.6719H99.6064ZM106.169 44.6719V48.1143H88.7666V44.6719H106.169ZM113.347 44.6719V66H108.967V44.6719H113.347ZM134.821 44.6719V66H130.427L121.857 51.7031V66H117.463V44.6719H121.857L130.441 58.9834V44.6719H134.821ZM155.549 54.8525V63.3047C155.217 63.7051 154.704 64.1396 154.011 64.6084C153.317 65.0674 152.424 65.4629 151.33 65.7949C150.236 66.127 148.913 66.293 147.36 66.293C145.983 66.293 144.729 66.0684 143.596 65.6191C142.463 65.1602 141.486 64.4912 140.666 63.6123C139.855 62.7334 139.23 61.6592 138.791 60.3896C138.352 59.1104 138.132 57.6504 138.132 56.0098V54.6768C138.132 53.0361 138.342 51.5762 138.762 50.2969C139.191 49.0176 139.802 47.9385 140.593 47.0596C141.384 46.1807 142.326 45.5117 143.42 45.0527C144.514 44.5938 145.729 44.3643 147.067 44.3643C148.923 44.3643 150.446 44.667 151.638 45.2725C152.829 45.8682 153.737 46.6982 154.362 47.7627C154.997 48.8174 155.388 50.0283 155.534 51.3955H151.271C151.164 50.6729 150.959 50.043 150.656 49.5059C150.354 48.9688 149.919 48.5488 149.353 48.2461C148.796 47.9434 148.073 47.792 147.185 47.792C146.452 47.792 145.798 47.9434 145.222 48.2461C144.655 48.5391 144.177 48.9736 143.786 49.5498C143.396 50.126 143.098 50.8389 142.893 51.6885C142.688 52.5381 142.585 53.5244 142.585 54.6475V56.0098C142.585 57.123 142.692 58.1094 142.907 58.9688C143.122 59.8184 143.439 60.5361 143.859 61.1221C144.289 61.6982 144.816 62.1328 145.441 62.4258C146.066 62.7188 146.794 62.8652 147.624 62.8652C148.317 62.8652 148.894 62.8066 149.353 62.6895C149.821 62.5723 150.197 62.4307 150.48 62.2646C150.773 62.0889 150.998 61.9229 151.154 61.7666V57.9873H147.141V54.8525H155.549ZM177.668 60.4189C177.668 60.0381 177.609 59.6963 177.492 59.3936C177.385 59.0811 177.18 58.7979 176.877 58.5439C176.574 58.2803 176.149 58.0215 175.603 57.7676C175.056 57.5137 174.348 57.25 173.479 56.9766C172.512 56.6641 171.594 56.3125 170.725 55.9219C169.865 55.5312 169.104 55.0771 168.439 54.5596C167.785 54.0322 167.268 53.4219 166.887 52.7285C166.516 52.0352 166.33 51.2295 166.33 50.3115C166.33 49.4229 166.525 48.6172 166.916 47.8945C167.307 47.1621 167.854 46.5371 168.557 46.0195C169.26 45.4922 170.09 45.0869 171.047 44.8037C172.014 44.5205 173.073 44.3789 174.226 44.3789C175.798 44.3789 177.17 44.6621 178.342 45.2285C179.514 45.7949 180.422 46.5713 181.066 47.5576C181.721 48.5439 182.048 49.6719 182.048 50.9414H177.683C177.683 50.3164 177.551 49.7695 177.287 49.3008C177.033 48.8223 176.643 48.4463 176.115 48.1729C175.598 47.8994 174.943 47.7627 174.152 47.7627C173.391 47.7627 172.756 47.8799 172.248 48.1143C171.74 48.3389 171.359 48.6465 171.105 49.0371C170.852 49.418 170.725 49.8477 170.725 50.3262C170.725 50.6875 170.812 51.0146 170.988 51.3076C171.174 51.6006 171.447 51.874 171.809 52.1279C172.17 52.3818 172.614 52.6211 173.142 52.8457C173.669 53.0703 174.279 53.29 174.973 53.5049C176.135 53.8564 177.155 54.252 178.034 54.6914C178.923 55.1309 179.665 55.624 180.261 56.1709C180.856 56.7178 181.306 57.3379 181.608 58.0312C181.911 58.7246 182.062 59.5107 182.062 60.3896C182.062 61.3174 181.882 62.1475 181.521 62.8799C181.159 63.6123 180.637 64.2324 179.953 64.7402C179.27 65.248 178.454 65.6338 177.507 65.8975C176.56 66.1611 175.5 66.293 174.328 66.293C173.273 66.293 172.233 66.1562 171.208 65.8828C170.183 65.5996 169.25 65.1748 168.41 64.6084C167.58 64.042 166.916 63.3193 166.418 62.4404C165.92 61.5615 165.671 60.5215 165.671 59.3203H170.08C170.08 59.9844 170.183 60.5459 170.388 61.0049C170.593 61.4639 170.881 61.835 171.252 62.1182C171.633 62.4014 172.082 62.6064 172.6 62.7334C173.127 62.8604 173.703 62.9238 174.328 62.9238C175.09 62.9238 175.715 62.8164 176.203 62.6016C176.701 62.3867 177.067 62.0889 177.302 61.708C177.546 61.3271 177.668 60.8975 177.668 60.4189ZM189.724 44.6719V66H185.344V44.6719H189.724ZM202.937 44.6719V66H198.557V44.6719H202.937ZM209.499 44.6719V48.1143H192.097V44.6719H209.499ZM226.315 62.5723V66H214.963V62.5723H226.315ZM216.398 44.6719V66H212.004V44.6719H216.398ZM224.836 53.3584V56.6982H214.963V53.3584H224.836ZM226.301 44.6719V48.1143H214.963V44.6719H226.301ZM239.982 60.4189C239.982 60.0381 239.924 59.6963 239.807 59.3936C239.699 59.0811 239.494 58.7979 239.191 58.5439C238.889 58.2803 238.464 58.0215 237.917 57.7676C237.37 57.5137 236.662 57.25 235.793 56.9766C234.826 56.6641 233.908 56.3125 233.039 55.9219C232.18 55.5312 231.418 55.0771 230.754 54.5596C230.1 54.0322 229.582 53.4219 229.201 52.7285C228.83 52.0352 228.645 51.2295 228.645 50.3115C228.645 49.4229 228.84 48.6172 229.23 47.8945C229.621 47.1621 230.168 46.5371 230.871 46.0195C231.574 45.4922 232.404 45.0869 233.361 44.8037C234.328 44.5205 235.388 44.3789 236.54 44.3789C238.112 44.3789 239.484 44.6621 240.656 45.2285C241.828 45.7949 242.736 46.5713 243.381 47.5576C244.035 48.5439 244.362 49.6719 244.362 50.9414H239.997C239.997 50.3164 239.865 49.7695 239.602 49.3008C239.348 48.8223 238.957 48.4463 238.43 48.1729C237.912 47.8994 237.258 47.7627 236.467 47.7627C235.705 47.7627 235.07 47.8799 234.562 48.1143C234.055 48.3389 233.674 48.6465 233.42 49.0371C233.166 49.418 233.039 49.8477 233.039 50.3262C233.039 50.6875 233.127 51.0146 233.303 51.3076C233.488 51.6006 233.762 51.874 234.123 52.1279C234.484 52.3818 234.929 52.6211 235.456 52.8457C235.983 53.0703 236.594 53.29 237.287 53.5049C238.449 53.8564 239.47 54.252 240.349 54.6914C241.237 55.1309 241.979 55.624 242.575 56.1709C243.171 56.7178 243.62 57.3379 243.923 58.0312C244.226 58.7246 244.377 59.5107 244.377 60.3896C244.377 61.3174 244.196 62.1475 243.835 62.8799C243.474 63.6123 242.951 64.2324 242.268 64.7402C241.584 65.248 240.769 65.6338 239.821 65.8975C238.874 66.1611 237.814 66.293 236.643 66.293C235.588 66.293 234.548 66.1562 233.522 65.8828C232.497 65.5996 231.564 65.1748 230.725 64.6084C229.895 64.042 229.23 63.3193 228.732 62.4404C228.234 61.5615 227.985 60.5215 227.985 59.3203H232.395C232.395 59.9844 232.497 60.5459 232.702 61.0049C232.907 61.4639 233.195 61.835 233.566 62.1182C233.947 62.4014 234.396 62.6064 234.914 62.7334C235.441 62.8604 236.018 62.9238 236.643 62.9238C237.404 62.9238 238.029 62.8164 238.518 62.6016C239.016 62.3867 239.382 62.0889 239.616 61.708C239.86 61.3271 239.982 60.8975 239.982 60.4189Z" fill="white"/>
<path d="M45.2539 18.6396H39.7754L39.7461 15.6221H44.3457C45.1562 15.6221 45.8203 15.5195 46.3379 15.3145C46.8555 15.0996 47.2412 14.792 47.4951 14.3916C47.7588 13.9814 47.8906 13.4834 47.8906 12.8975C47.8906 12.2334 47.7637 11.6963 47.5098 11.2861C47.2656 10.876 46.8799 10.5781 46.3525 10.3926C45.835 10.207 45.166 10.1143 44.3457 10.1143H41.2988V28H36.9043V6.67188H44.3457C45.5859 6.67188 46.6943 6.78906 47.6709 7.02344C48.6572 7.25781 49.4922 7.61426 50.1758 8.09277C50.8594 8.57129 51.3818 9.17676 51.7432 9.90918C52.1045 10.6318 52.2852 11.4912 52.2852 12.4873C52.2852 13.3662 52.085 14.1768 51.6846 14.9189C51.2939 15.6611 50.6738 16.2666 49.8242 16.7354C48.9844 17.2041 47.8857 17.4629 46.5283 17.5117L45.2539 18.6396ZM45.0635 28H38.5742L40.2881 24.5723H45.0635C45.835 24.5723 46.4648 24.4502 46.9531 24.2061C47.4414 23.9521 47.8027 23.6104 48.0371 23.1807C48.2715 22.751 48.3887 22.2578 48.3887 21.7012C48.3887 21.0762 48.2812 20.5342 48.0664 20.0752C47.8613 19.6162 47.5293 19.2646 47.0703 19.0205C46.6113 18.7666 46.0059 18.6396 45.2539 18.6396H41.0205L41.0498 15.6221H46.3232L47.334 16.8086C48.6328 16.7891 49.6777 17.0186 50.4688 17.4971C51.2695 17.9658 51.8506 18.5762 52.2119 19.3281C52.583 20.0801 52.7686 20.8857 52.7686 21.7451C52.7686 23.1123 52.4707 24.2646 51.875 25.2021C51.2793 26.1299 50.4053 26.8281 49.2529 27.2969C48.1104 27.7656 46.7139 28 45.0635 28ZM70.376 24.5723V28H59.0234V24.5723H70.376ZM60.459 6.67188V28H56.0645V6.67188H60.459ZM68.8965 15.3584V18.6982H59.0234V15.3584H68.8965ZM70.3613 6.67188V10.1143H59.0234V6.67188H70.3613ZM84.043 22.4189C84.043 22.0381 83.9844 21.6963 83.8672 21.3936C83.7598 21.0811 83.5547 20.7979 83.252 20.5439C82.9492 20.2803 82.5244 20.0215 81.9775 19.7676C81.4307 19.5137 80.7227 19.25 79.8535 18.9766C78.8867 18.6641 77.9688 18.3125 77.0996 17.9219C76.2402 17.5312 75.4785 17.0771 74.8145 16.5596C74.1602 16.0322 73.6426 15.4219 73.2617 14.7285C72.8906 14.0352 72.7051 13.2295 72.7051 12.3115C72.7051 11.4229 72.9004 10.6172 73.291 9.89453C73.6816 9.16211 74.2285 8.53711 74.9316 8.01953C75.6348 7.49219 76.4648 7.08691 77.4219 6.80371C78.3887 6.52051 79.4482 6.37891 80.6006 6.37891C82.1729 6.37891 83.5449 6.66211 84.7168 7.22852C85.8887 7.79492 86.7969 8.57129 87.4414 9.55762C88.0957 10.5439 88.4229 11.6719 88.4229 12.9414H84.0576C84.0576 12.3164 83.9258 11.7695 83.6621 11.3008C83.4082 10.8223 83.0176 10.4463 82.4902 10.1729C81.9727 9.89941 81.3184 9.7627 80.5273 9.7627C79.7656 9.7627 79.1309 9.87988 78.623 10.1143C78.1152 10.3389 77.7344 10.6465 77.4805 11.0371C77.2266 11.418 77.0996 11.8477 77.0996 12.3262C77.0996 12.6875 77.1875 13.0146 77.3633 13.3076C77.5488 13.6006 77.8223 13.874 78.1836 14.1279C78.5449 14.3818 78.9893 14.6211 79.5166 14.8457C80.0439 15.0703 80.6543 15.29 81.3477 15.5049C82.5098 15.8564 83.5303 16.252 84.4092 16.6914C85.2979 17.1309 86.04 17.624 86.6357 18.1709C87.2314 18.7178 87.6807 19.3379 87.9834 20.0312C88.2861 20.7246 88.4375 21.5107 88.4375 22.3896C88.4375 23.3174 88.2568 24.1475 87.8955 24.8799C87.5342 25.6123 87.0117 26.2324 86.3281 26.7402C85.6445 27.248 84.8291 27.6338 83.8818 27.8975C82.9346 28.1611 81.875 28.293 80.7031 28.293C79.6484 28.293 78.6084 28.1562 77.583 27.8828C76.5576 27.5996 75.625 27.1748 74.7852 26.6084C73.9551 26.042 73.291 25.3193 72.793 24.4404C72.2949 23.5615 72.0459 22.5215 72.0459 21.3203H76.4551C76.4551 21.9844 76.5576 22.5459 76.7627 23.0049C76.9678 23.4639 77.2559 23.835 77.627 24.1182C78.0078 24.4014 78.457 24.6064 78.9746 24.7334C79.502 24.8604 80.0781 24.9238 80.7031 24.9238C81.4648 24.9238 82.0898 24.8164 82.5781 24.6016C83.0762 24.3867 83.4424 24.0889 83.6768 23.708C83.9209 23.3271 84.043 22.8975 84.043 22.4189ZM100.962 6.67188V28H96.582V6.67188H100.962ZM107.524 6.67188V10.1143H90.1221V6.67188H107.524ZM133.613 16.8525V25.3047C133.281 25.7051 132.769 26.1396 132.075 26.6084C131.382 27.0674 130.488 27.4629 129.395 27.7949C128.301 28.127 126.978 28.293 125.425 28.293C124.048 28.293 122.793 28.0684 121.66 27.6191C120.527 27.1602 119.551 26.4912 118.73 25.6123C117.92 24.7334 117.295 23.6592 116.855 22.3896C116.416 21.1104 116.196 19.6504 116.196 18.0098V16.6768C116.196 15.0361 116.406 13.5762 116.826 12.2969C117.256 11.0176 117.866 9.93848 118.657 9.05957C119.448 8.18066 120.391 7.51172 121.484 7.05273C122.578 6.59375 123.794 6.36426 125.132 6.36426C126.987 6.36426 128.511 6.66699 129.702 7.27246C130.894 7.86816 131.802 8.69824 132.427 9.7627C133.062 10.8174 133.452 12.0283 133.599 13.3955H129.336C129.229 12.6729 129.023 12.043 128.721 11.5059C128.418 10.9687 127.983 10.5488 127.417 10.2461C126.86 9.94336 126.138 9.79199 125.249 9.79199C124.517 9.79199 123.862 9.94336 123.286 10.2461C122.72 10.5391 122.241 10.9736 121.851 11.5498C121.46 12.126 121.162 12.8389 120.957 13.6885C120.752 14.5381 120.649 15.5244 120.649 16.6475V18.0098C120.649 19.123 120.757 20.1094 120.972 20.9688C121.187 21.8184 121.504 22.5361 121.924 23.1221C122.354 23.6982 122.881 24.1328 123.506 24.4258C124.131 24.7188 124.858 24.8652 125.688 24.8652C126.382 24.8652 126.958 24.8066 127.417 24.6895C127.886 24.5723 128.262 24.4307 128.545 24.2646C128.838 24.0889 129.062 23.9229 129.219 23.7666V19.9873H125.205V16.8525H133.613ZM151.47 24.5723V28H140.117V24.5723H151.47ZM141.553 6.67188V28H137.158V6.67188H141.553ZM149.99 15.3584V18.6982H140.117V15.3584H149.99ZM151.455 6.67188V10.1143H140.117V6.67188H151.455ZM154.033 6.67188H161.987C163.618 6.67188 165.02 6.91602 166.191 7.4043C167.373 7.89258 168.281 8.61523 168.916 9.57227C169.551 10.5293 169.868 11.7061 169.868 13.1025C169.868 14.2451 169.673 15.2266 169.282 16.0469C168.901 16.8574 168.359 17.5361 167.656 18.083C166.963 18.6201 166.147 19.0498 165.21 19.3721L163.818 20.1045H156.904L156.875 16.6768H162.017C162.788 16.6768 163.428 16.54 163.936 16.2666C164.443 15.9932 164.824 15.6123 165.078 15.124C165.342 14.6357 165.474 14.0693 165.474 13.4248C165.474 12.7412 165.347 12.1504 165.093 11.6523C164.839 11.1543 164.453 10.7734 163.936 10.5098C163.418 10.2461 162.769 10.1143 161.987 10.1143H158.428V28H154.033V6.67188ZM165.957 28L161.094 18.4932L165.737 18.4639L170.659 27.7949V28H165.957ZM175.259 6.67188H178.979L184.458 22.3311L189.937 6.67188H193.657L185.952 28H182.964L175.259 6.67188ZM173.252 6.67188H176.958L177.632 21.9355V28H173.252V6.67188ZM191.958 6.67188H195.679V28H191.284V21.9355L191.958 6.67188ZM208.467 10.3193L202.666 28H197.993L205.918 6.67188H208.892L208.467 10.3193ZM213.286 28L207.471 10.3193L207.002 6.67188H210.005L217.974 28H213.286ZM213.022 20.0605V23.5029H201.758V20.0605H213.022ZM237.31 6.67188V28H232.915L224.346 13.7031V28H219.951V6.67188H224.346L232.93 20.9834V6.67188H237.31ZM243.652 6.67188L248.105 16.3984L252.559 6.67188H257.349L250.332 20.2363V28H245.879V20.2363L238.848 6.67188H243.652Z" fill="#285CA7"/>
</g>
<defs>
<clipPath id="clip0_42_2">
<rect width="279" height="75" fill="white"/>
</clipPath>
</defs>
</svg>
